<svg width="29" height="29" viewBox="0 0 29 29" fill="none" xmlns="http://www.w3.org/2000/svg">
<path d="M14.25 0C18.0293 0 21.6539 1.50133 24.3263 4.17373C26.9987 6.84612 28.5 10.4707 28.5 14.25C28.5 18.0293 26.9987 21.6539 24.3263 24.3263C21.6539 26.9987 18.0293 28.5 14.25 28.5C10.4707 28.5 6.84612 26.9987 4.17373 24.3263C1.50133 21.6539 0 18.0293 0 14.25C0 10.4707 1.50133 6.84612 4.17373 4.17373C6.84612 1.50133 10.4707 0 14.25 0ZM14.25 1.5C10.8685 1.5 7.62548 2.8433 5.23439 5.23439C2.8433 7.62548 1.5 10.8685 1.5 14.25C1.5 17.6315 2.8433 20.8745 5.23439 23.2656C7.62548 25.6567 10.8685 27 14.25 27C15.9244 27 17.5823 26.6702 19.1292 26.0295C20.6761 25.3887 22.0817 24.4496 23.2656 23.2656C24.4496 22.0817 25.3887 20.6761 26.0295 19.1292C26.6702 17.5823 27 15.9244 27 14.25C27 10.8685 25.6567 7.62548 23.2656 5.23439C20.8745 2.8433 17.6315 1.5 14.25 1.5ZM13.5 6H15V14.13L22.05 18.195L21.3 19.5L13.5 15V6Z" fill="black"/>
</svg>
